#!OML:ASF F:\VICON\USERDATA\INSTALL\rory3\rory3.ASF
:FULLY-SPECIFIED
:DEGREES
385
root -0.0634955 18.0206 -0.916325 4.02759 -11.6098 1.61895
lowerback -0.0450756 -2.15615 -3.73223
upperback 0.750567 -2.87743 2.22729
thorax 1.09639 -1.48251 4.35203
lowerneck -25.9948 0.248754 -8.3321
upperneck 24.8318 3.04274 2.34939
head 12.389 0.851904 2.81934
rclavicle 2.07233e-014 -4.77083e-015
rhumerus -31.4265 -3.55867 -80.7383
rradius 30.4109
rwrist 20.4134
rhand -17.8212 9.17678
rfingers 7.12502
rthumb 8.44291 -20.6345
lclavicle 2.07233e-014 -4.77083e-015
lhumerus 0.222003 -10.5803 82.7766
lradius 77.2656
lwrist 3.16837
lhand -30.4782 27.9464
lfingers 7.12502
lthumb -3.77928 57.8926
rfemur -11.0244 9.35325 14.2747
rtibia 25.6189
rfoot -15.4921 -3.30223
rtoes 4.24227
lfemur -1.3826 -2.04922 -22.1686
ltibia 11.6023
lfoot -9.39006 7.39646
ltoes -13.3285
386
root -0.0642875 18.0208 -0.91983 4.00718 -11.6401 1.62531
lowerback -0.0399331 -2.1432 -3.77079
upperback 0.679455 -2.86027 2.23244
thorax 1.02074 -1.47114 4.38137
lowerneck -25.7865 0.229003 -8.38503
upperneck 24.8761 3.02485 2.31824
head 12.3682 0.833151 2.81072
rclavicle -3.10601e-014 7.15625e-015
rhumerus -31.7016 -3.63552 -80.6649
rradius 30.4508
rwrist 20.4125
rhand -17.6401 9.16225
rfingers 7.12502
rthumb 8.61763 -20.6419
lclavicle -3.10601e-014 7.15625e-015
lhumerus -0.193957 -10.4179 83.034
lradius 76.664
lwrist 2.92957
lhand -30.2976 28.1123
lfingers 7.12502
lthumb -3.60487 58.0616
rfemur -11.0231 9.35425 14.2723
rtibia 25.6082
rfoot -15.4418 -3.29741
rtoes 4.30135
lfemur -1.34077 -2.02307 -22.1722
ltibia 11.5467
lfoot -9.35926 7.3949
ltoes -13.2362
387
root -0.0634855 18.021 -0.922263 3.97756 -11.6594 1.64044
lowerback -0.0117408 -2.12454 -3.7697
upperback 0.617518 -2.83606 2.20706
thorax 0.93725 -1.45569 4.35751
lowerneck -25.7229 0.191164 -8.42367
upperneck 24.9649 2.98395 2.31264
head 12.3938 0.8071 2.80923
rclavicle -1.05356e-014 0
rhumerus -31.9195 -3.6716 -80.6588
rradius 30.4669
rwrist 20.3501
rhand -17.4787 8.88212
rfingers 7.12502
rthumb 8.77343 -20.9155
lclavicle -1.05356e-014 0
lhumerus -0.610733 -10.3121 83.2349
lradius 75.9266
lwrist 2.56939
lhand -30.6551 27.7444
lfingers 7.12502
lthumb -3.9501 57.6875
rfemur -11.0083 9.36362 14.2561
rtibia 25.5985
rfoot -15.4088 -3.24201
rtoes 4.33986
lfemur -1.24192 -2.08262 -22.1983
ltibia 11.4024
lfoot -9.27632 7.46638
ltoes -13.1623
388
root -0.0646733 18.021 -0.921214 3.84469 -11.4728 1.62785
lowerback 0.131281 -2.1731 -3.75898
upperback 0.550635 -2.9054 2.2008
thorax 0.794548 -1.48575 4.35133
lowerneck -25.616 0.194334 -8.39766
upperneck 25.1182 2.9805 2.2782
head 12.4357 0.797519 2.79351
rclavicle 2.52953e-014 5.56597e-015
rhumerus -32.1318 -3.75417 -80.6262
rradius 30.3307
rwrist 20.4385
rhand -17.5826 8.91772
rfingers 7.12502
rthumb 8.67318 -20.8841
lclavicle 2.52953e-014 5.56597e-015
lhumerus -1.15358 -10.1229 83.4794
lradius 75.2377
lwrist 2.20134
lhand -30.7923 27.1471
lfingers 7.12502
lthumb -4.0826 57.0878
rfemur -10.7918 9.29587 14.326
rtibia 25.5784
rfoot -15.4939 -3.30545
rtoes 4.41381
lfemur -1.02255 -2.18703 -22.1611
ltibia 11.2553
lfoot -9.22742 7.3579
ltoes -12.9613
389
root -0.0708824 18.0183 -0.913337 3.45048 -10.8424 1.76078
lowerback 0.345053 -2.3722 -3.9271
upperback 0.616821 -3.17772 2.18662
thorax 0.779673 -1.62421 4.43497
lowerneck -25.4807 0.186164 -8.43386
upperneck 25.154 2.98487 2.22946
head 12.4247 0.787829 2.7802
rclavicle -6.60959e-015 -2.62396e-014
rhumerus -32.2826 -3.80375 -80.583
rradius 30.2685
rwrist 20.4865
rhand -17.7165 8.88051
rfingers 7.12502
rthumb 8.54389 -20.9266
lclavicle -6.60959e-015 -2.62396e-014
lhumerus -1.63754 -9.91161 83.7175
lradius 74.6771
lwrist 2.05089
lhand -30.7707 26.9003
lfingers 7.12502
lthumb -4.06176 56.8413
rfemur -10.1474 9.09018 14.3549
rtibia 25.5541
rfoot -15.8104 -3.61016
rtoes 4.51541
lfemur -0.548582 -2.40267 -22.225
ltibia 11.1058
lfoot -9.19455 6.9493
ltoes -13.1858
390
root -0.0701934 18.018 -0.912678 3.39352 -10.847 1.76448
lowerback 0.288872 -2.37244 -3.90608
upperback 0.625979 -3.17613 2.18069
thorax 0.818912 -1.62434 4.41415
lowerneck -25.5141 0.168109 -8.47181
upperneck 25.276 2.99816 2.1738
head 12.4805 0.776927 2.77099
rclavicle 3.75703e-014 -2.38542e-015
rhumerus -32.4526 -3.70553 -80.6209
rradius 30.4046
rwrist 20.3809
rhand -17.834 8.53195
rfingers 7.12502
rthumb 8.43053 -21.2798
lclavicle 3.75703e-014 -2.38542e-015
lhumerus -2.00537 -9.78712 83.8575
lradius 74.1257
lwrist 2.14239
lhand -30.8344 26.8597
lfingers 7.12502
lthumb -4.12325 56.7996
rfemur -10.0571 9.05202 14.3556
rtibia 25.5167
rfoot -15.7795 -3.55575
rtoes 4.6508
lfemur -0.420986 -2.45507 -22.2353
ltibia 10.9758
lfoot -9.16323 6.98721
ltoes -12.8169
391
root -0.0704967 18.0174 -0.913427 3.35089 -10.904 1.73216
lowerback 0.253922 -2.33789 -3.8549
upperback 0.619858 -3.12882 2.17129
thorax 0.823829 -1.60021 4.37487
lowerneck -25.571 0.177353 -8.3929
upperneck 25.4147 3.03087 2.03719
head 12.55 0.773817 2.71551
rclavicle -7.95139e-015 3.97569e-015
rhumerus -32.5807 -3.7229 -80.6371
rradius 30.4594
rwrist 20.6012
rhand -17.7604 8.14107
rfingers 7.12502
rthumb 8.50155 -21.6678
lclavicle -7.95139e-015 3.97569e-015
lhumerus -2.38546 -9.75635 83.9688
lradius 73.5832
lwrist 2.26622
lhand -30.8797 26.7714
lfingers 7.12502
lthumb -4.16697 56.7104
rfemur -9.99829 9.12212 14.394
rtibia 25.4819
rfoot -15.7957 -3.53627
rtoes 4.58338
lfemur -0.313646 -2.40575 -22.2038
ltibia 10.8777
lfoot -9.17333 7.00375
ltoes -12.666
